<?xml version="1.0" encoding="UTF-8"?>
<svg id="Layer_2" data-name="Layer 2" xmlns="http://www.w3.org/2000/svg" viewBox="0 0 85.56 85.56">
  <defs>
    <style>
      .cls-1 {
        stroke: #000;
      }

      .cls-1, .cls-2 {
        fill: #fff;
      }

      .cls-1, .cls-3 {
        stroke-miterlimit: 10;
      }

      .cls-3 {
        stroke: #fff;
      }
    </style>
  </defs>
  <g id="Hifi">
    <g>
      <rect class="cls-2" width="85.56" height="85.56"/>
      <g>
        <rect class="cls-1" x="23.45" y="21.57" width="37.59" height="46.95"/>
        <path class="cls-3" d="M16.41,3.76s3.95,41.19,0,54.7c0,0,17.8,1.98,20.76-9.56,2.97-11.53-3.24-18.76-3.24-18.76L16.41,3.76Z"/>
        <path class="cls-3" d="M69.15,82.3s-3.95-41.19,0-54.7c0,0-17.8-1.98-20.76,9.56-2.97,11.53,2.51,18.75,2.51,18.75l18.25,26.4Z"/>
        <path class="cls-3" d="M40.95,58.56s-4.64.52-5.41-2.49c-.77-3.01.84-4.89.84-4.89h11.72s1.62,1.89.84,4.89-5.41,2.49-5.41,2.49h-2.58Z"/>
      </g>
    </g>
  </g>
</svg>